<svg data-v-423bf9ae="" xmlns="http://www.w3.org/2000/svg" viewBox="0 0 260.50510110339434 183" class="iconAboveSlogan"><!----><!----><!----><g data-v-423bf9ae="" id="227bdbab-9047-4cb2-a3bf-03110c7cb9b8" fill="#7DE38D" transform="matrix(4.735595510851375,0,0,4.735595510851375,-1.3733241204065223,86.28335060478548)"><path d="M3.75 13.19L3.75 13.72L0.29 13.72L0.29 13.19L1.51 12.91L1.51 4.63L0.29 4.49L0.29 4.06L2.46 3.53L2.90 3.53L2.90 12.91L3.75 13.19ZM8.02 13.20L8.02 13.72L4.75 13.72L4.75 13.19L5.36 12.95L3.08 10.11L5.11 7.60L3.99 7.34L3.99 6.85L7.59 6.85L7.59 7.34L6.26 7.62L4.47 9.77L7.01 12.92L8.02 13.20ZM10.14 5.66Q9.74 5.66 9.46 5.40Q9.18 5.14 9.18 4.76L9.18 4.76Q9.18 4.38 9.47 4.10Q9.76 3.82 10.14 3.82L10.14 3.82Q10.50 3.82 10.79 4.10Q11.07 4.38 11.07 4.76L11.07 4.76Q11.07 5.14 10.79 5.40Q10.51 5.66 10.14 5.66L10.14 5.66ZM12.04 13.72L8.25 13.72L8.25 13.19L9.45 12.91L9.45 7.81L8.25 7.67L8.25 7.24L10.40 6.71L10.84 6.71L10.84 12.91L12.04 13.19L12.04 13.72ZM16.86 13.55Q16.45 13.66 15.77 13.76Q15.09 13.85 14.73 13.85L14.73 13.85Q13.59 13.85 13.59 12.71L13.59 12.71L13.59 7.64L12.57 7.64L12.57 7.10L13.72 6.69L14.34 5.29L14.97 5.29L14.97 6.85L17.05 6.85L17.05 7.76L14.97 7.64L14.97 12.80L16.86 13.08L16.86 13.55ZM21.25 13.72L17.44 13.72L17.44 13.19L18.66 12.91L18.66 4.63L17.44 4.49L17.44 4.06L19.59 3.53L20.05 3.53L20.05 12.91L21.25 13.19L21.25 13.72ZM25.19 13.87Q23.53 13.87 22.75 12.94Q21.97 12.01 21.97 10.32L21.97 10.32Q21.97 8.51 22.77 7.61Q23.58 6.71 25.03 6.71L25.03 6.71Q26.42 6.71 27.07 7.35Q27.72 7.99 27.72 9.37L27.72 9.37Q27.72 9.73 27.68 10.14L27.68 10.14L23.48 10.14L23.48 10.54Q23.48 11.77 24.00 12.40Q24.53 13.03 25.49 13.03L25.49 13.03Q26.39 13.03 27.54 12.71L27.54 12.71L27.64 13.20Q27.08 13.55 26.50 13.71Q25.93 13.87 25.19 13.87L25.19 13.87ZM23.51 9.56L26.26 9.41L26.26 9.10Q26.26 8.29 26.00 7.89Q25.73 7.49 25.12 7.49L25.12 7.49Q24.28 7.49 23.92 7.97Q23.56 8.46 23.51 9.56L23.51 9.56ZM33.39 13.06Q32.86 13.45 32.30 13.66Q31.74 13.86 31.07 13.86L31.07 13.86Q30.28 13.86 29.73 13.38Q29.18 12.89 28.90 12.09Q28.63 11.28 28.63 10.32L28.63 10.32Q28.63 8.62 29.46 7.67Q30.28 6.71 31.75 6.71L31.75 6.71Q32.12 6.71 32.47 6.78Q32.83 6.85 33.08 6.93Q33.33 7.01 33.35 7.04L33.35 7.04L33.35 4.63L32.14 4.49L32.14 4.06L34.29 3.53L34.73 3.53L34.73 12.80L35.94 13.09L35.94 13.55Q35.17 13.78 34.43 13.78L34.43 13.78Q34.08 13.78 33.77 13.58Q33.46 13.38 33.39 13.06L33.39 13.06ZM31.72 12.95Q32.17 12.95 32.61 12.78Q33.05 12.61 33.35 12.42L33.35 12.42L33.35 7.87Q32.72 7.46 31.92 7.46L31.92 7.46Q31.05 7.46 30.60 8.21Q30.14 8.96 30.14 10.28L30.14 10.28Q30.14 11.51 30.53 12.23Q30.93 12.95 31.72 12.95L31.72 12.95ZM39.09 16.20Q37.56 16.20 37.03 15.83Q36.50 15.46 36.50 14.84L36.50 14.84Q36.50 14.04 37.37 13.37L37.37 13.37Q37.13 13.27 37.01 13.05Q36.89 12.84 36.89 12.57L36.89 12.57Q36.89 12.25 37.13 11.90Q37.37 11.55 37.79 11.12L37.79 11.12Q36.88 10.51 36.88 9.07L36.88 9.07Q36.88 8.43 37.17 7.89Q37.46 7.35 38.06 7.02Q38.65 6.69 39.49 6.69L39.49 6.69Q40.36 6.69 41.08 7.07L41.08 7.07L43.04 6.54L43.04 7.59L41.54 7.59Q41.82 7.85 41.96 8.26Q42.11 8.67 42.11 9.07L42.11 9.07Q42.11 10.09 41.45 10.77Q40.80 11.44 39.38 11.44L39.38 11.44Q39.06 11.44 38.76 11.40Q38.46 11.35 38.40 11.33L38.40 11.33Q38.09 11.79 38.09 12.01L38.09 12.01Q38.09 12.18 38.21 12.32Q38.32 12.46 38.53 12.46L38.53 12.46L40.67 12.46Q41.73 12.46 42.29 12.77Q42.84 13.08 42.84 13.92L42.84 13.92Q42.84 14.49 42.43 15.02Q42.03 15.54 41.18 15.87Q40.33 16.20 39.09 16.20L39.09 16.20ZM39.52 10.71Q40.19 10.71 40.47 10.29Q40.74 9.87 40.74 9.07L40.74 9.07Q40.74 7.42 39.48 7.42L39.48 7.42Q38.82 7.42 38.55 7.85Q38.28 8.29 38.28 9.07L38.28 9.07Q38.28 9.87 38.56 10.29Q38.85 10.71 39.52 10.71L39.52 10.71ZM39.17 15.43Q40.43 15.43 41.02 15.08Q41.61 14.73 41.61 14.11L41.61 14.11Q41.61 13.72 41.39 13.59Q41.17 13.47 40.67 13.47L40.67 13.47L38.18 13.47Q37.74 14 37.74 14.53L37.74 14.53Q37.74 15.01 38.05 15.22Q38.36 15.43 39.17 15.43L39.17 15.43ZM46.90 13.87Q45.25 13.87 44.46 12.94Q43.68 12.01 43.68 10.32L43.68 10.32Q43.68 8.51 44.48 7.61Q45.29 6.71 46.75 6.71L46.75 6.71Q48.13 6.71 48.78 7.35Q49.43 7.99 49.43 9.37L49.43 9.37Q49.43 9.73 49.39 10.14L49.39 10.14L45.19 10.14L45.19 10.54Q45.19 11.77 45.72 12.40Q46.24 13.03 47.21 13.03L47.21 13.03Q48.10 13.03 49.25 12.71L49.25 12.71L49.35 13.20Q48.79 13.55 48.22 13.71Q47.64 13.87 46.90 13.87L46.90 13.87ZM45.22 9.56L47.98 9.41L47.98 9.10Q47.98 8.29 47.71 7.89Q47.45 7.49 46.83 7.49L46.83 7.49Q45.99 7.49 45.63 7.97Q45.28 8.46 45.22 9.56L45.22 9.56ZM54.14 7.70Q53.42 7.70 52.81 7.95L52.81 7.95L52.81 12.91L54.40 13.22L54.40 13.72L50.22 13.72L50.22 13.23L51.42 12.89L51.42 7.83L50.22 7.67L50.22 7.24L52.25 6.71L52.78 6.71L52.78 7.35Q53.26 7.04 53.84 6.86Q54.42 6.68 54.92 6.68L54.92 6.68Q55.19 6.68 55.30 6.69L55.30 6.69L55.06 8.86L54.43 8.86L54.14 7.70Z"></path></g><!----><g data-v-423bf9ae="" id="4e749dd3-f64c-4408-aad9-b21732e3b3b9" transform="matrix(2.5,0,0,2.5,71,-15)" stroke="none" fill="#7DE38D"><path d="M37 6H11a5 5 0 00-5 5v26a5 5 0 005 5h26a5 5 0 005-5V11a5 5 0 00-5-5zm3 31a3 3 0 01-3 3H11a3 3 0 01-3-3V11a3 3 0 013-3h26a3 3 0 013 3z"></path><path d="M23.71 18.29l-4-4a1 1 0 00-1.42 0l-4 4a1 1 0 001.42 1.42l2.29-2.3V31a1 1 0 002 0V17.41l2.29 2.3a1 1 0 001.42 0 1 1 0 000-1.42zM32.29 26.29L30 28.59V15a1 1 0 00-2 0v13.59l-2.29-2.3a1 1 0 00-1.42 1.42l4 4a1 1 0 001.42 0l4-4a1 1 0 00-1.42-1.42z"></path></g><!----><g data-v-423bf9ae="" id="75783ccb-7a57-4ea5-b0a9-38fadff1ec52" fill="#7DE38D" transform="matrix(0.5871816242182492,0,0,0.5871816242182492,33.38489439682054,202.92345530385597)"><path d="M7.43 3.78L4.16 9.42L4.16 13.02L3.46 13.02L3.46 9.42L0.18 3.78L1.01 3.78L3.81 8.69L6.61 3.78L7.43 3.78ZM17.79 5.88Q19.35 5.88 20.24 6.85Q21.13 7.83 21.13 9.52L21.13 9.52Q21.13 11.21 20.24 12.19Q19.35 13.16 17.79 13.16L17.79 13.16Q16.24 13.16 15.35 12.19Q14.46 11.21 14.46 9.52L14.46 9.52Q14.46 7.83 15.35 6.85Q16.24 5.88 17.79 5.88L17.79 5.88ZM17.79 6.48Q16.56 6.48 15.86 7.29Q15.16 8.11 15.16 9.52L15.16 9.52Q15.16 10.93 15.86 11.75Q16.56 12.56 17.79 12.56L17.79 12.56Q19.03 12.56 19.73 11.75Q20.43 10.93 20.43 9.52L20.43 9.52Q20.43 8.11 19.73 7.29Q19.03 6.48 17.79 6.48L17.79 6.48ZM35.28 6.02L35.98 6.02L35.98 13.02L35.35 13.02L35.32 11.63Q34.97 12.38 34.27 12.77Q33.57 13.16 32.62 13.16L32.62 13.16Q31.47 13.16 30.79 12.52Q30.10 11.89 30.10 10.64L30.10 10.64L30.10 6.02L30.80 6.02L30.80 10.47Q30.80 12.54 32.73 12.54L32.73 12.54Q33.50 12.54 34.08 12.21Q34.66 11.87 34.97 11.30Q35.28 10.72 35.28 10.04L35.28 10.04L35.28 6.02ZM48.41 5.88Q48.97 5.88 49.29 6.12L49.29 6.12L49.11 6.78Q48.79 6.52 48.22 6.52L48.22 6.52Q47.68 6.52 47.21 6.85Q46.75 7.18 46.46 7.78Q46.17 8.37 46.17 9.10L46.17 9.10L46.17 13.02L45.47 13.02L45.47 6.02L46.06 6.02L46.14 7.45Q46.44 6.71 47.02 6.29Q47.60 5.88 48.41 5.88L48.41 5.88ZM69.02 13.02L69.02 3.78L72.28 3.78Q73.79 3.78 74.54 4.41Q75.29 5.04 75.29 6.23L75.29 6.23Q75.29 7.04 74.85 7.60Q74.41 8.16 73.60 8.33L73.60 8.33L73.60 8.34Q74.49 8.48 75.02 9.07Q75.54 9.66 75.54 10.53L75.54 10.53Q75.54 11.72 74.70 12.37Q73.85 13.02 72.28 13.02L72.28 13.02L69.02 13.02ZM69.72 8.04L72.30 8.04Q74.55 8.04 74.55 6.23L74.55 6.23Q74.55 4.42 72.30 4.42L72.30 4.42L69.72 4.42L69.72 8.04ZM69.72 12.38L72.42 12.38Q73.60 12.38 74.20 11.90Q74.80 11.42 74.80 10.53L74.80 10.53Q74.80 9.62 74.20 9.15Q73.60 8.68 72.42 8.68L72.42 8.68L69.72 8.68L69.72 12.38ZM89.77 6.02L90.47 6.02L90.47 13.02L89.84 13.02L89.81 11.63Q89.46 12.38 88.76 12.77Q88.06 13.16 87.11 13.16L87.11 13.16Q85.96 13.16 85.27 12.52Q84.59 11.89 84.59 10.64L84.59 10.64L84.59 6.02L85.29 6.02L85.29 10.47Q85.29 12.54 87.22 12.54L87.22 12.54Q87.99 12.54 88.57 12.21Q89.15 11.87 89.46 11.30Q89.77 10.72 89.77 10.04L89.77 10.04L89.77 6.02ZM102.24 13.16Q101.18 13.16 100.39 12.74Q99.61 12.32 99.32 11.52L99.32 11.52L99.89 11.14Q100.10 11.84 100.74 12.19Q101.39 12.54 102.33 12.54L102.33 12.54Q103.28 12.54 103.82 12.18Q104.36 11.82 104.36 11.21L104.36 11.21Q104.36 10.70 103.89 10.39Q103.43 10.08 102.27 9.87L102.27 9.87Q100.80 9.60 100.20 9.16Q99.60 8.71 99.60 7.88L99.60 7.88Q99.60 7.34 99.93 6.87Q100.27 6.41 100.88 6.15Q101.50 5.88 102.28 5.88L102.28 5.88Q103.39 5.88 104.05 6.30Q104.72 6.72 104.97 7.59L104.97 7.59L104.37 7.94Q103.98 6.50 102.28 6.50L102.28 6.50Q101.72 6.50 101.27 6.68Q100.81 6.86 100.55 7.16Q100.30 7.46 100.30 7.81L100.30 7.81Q100.30 8.39 100.77 8.71Q101.25 9.03 102.45 9.24L102.45 9.24Q103.88 9.48 104.47 9.93Q105.06 10.37 105.06 11.19L105.06 11.19Q105.06 12.08 104.29 12.62Q103.53 13.16 102.24 13.16L102.24 13.16ZM114.38 4.66Q114.11 4.66 113.95 4.50Q113.79 4.34 113.79 4.07L113.79 4.07Q113.79 3.81 113.95 3.65Q114.11 3.49 114.38 3.49L114.38 3.49Q114.65 3.49 114.81 3.65Q114.97 3.81 114.97 4.07L114.97 4.07Q114.97 4.34 114.81 4.50Q114.65 4.66 114.38 4.66L114.38 4.66ZM114.73 6.02L114.73 13.02L114.03 13.02L114.03 6.02L114.73 6.02ZM127.51 5.88Q128.72 5.88 129.45 6.55Q130.19 7.22 130.19 8.48L130.19 8.48L130.19 13.02L129.49 13.02L129.49 8.71Q129.49 7.59 128.94 7.04Q128.39 6.50 127.44 6.50L127.44 6.50Q126.77 6.50 126.20 6.80Q125.62 7.11 125.28 7.70Q124.94 8.29 124.94 9.07L124.94 9.07L124.94 13.02L124.24 13.02L124.24 6.02L124.87 6.02L124.89 7.43Q125.23 6.68 125.92 6.28Q126.62 5.88 127.51 5.88L127.51 5.88ZM145.43 9.35Q145.43 9.59 145.40 9.81L145.40 9.81L139.85 9.81Q139.92 11.10 140.61 11.82Q141.30 12.54 142.46 12.54L142.46 12.54Q143.29 12.54 143.88 12.21Q144.48 11.87 144.75 11.26L144.75 11.26L145.33 11.56Q144.94 12.33 144.21 12.75Q143.49 13.16 142.46 13.16L142.46 13.16Q140.91 13.16 140.03 12.19Q139.16 11.23 139.16 9.52L139.16 9.52Q139.16 7.81 140.01 6.85Q140.85 5.88 142.38 5.88L142.38 5.88Q143.81 5.88 144.62 6.83Q145.43 7.78 145.43 9.35L145.43 9.35ZM142.38 6.50Q141.25 6.50 140.59 7.20Q139.93 7.91 139.85 9.18L139.85 9.18L144.77 9.18Q144.70 7.92 144.08 7.21Q143.46 6.50 142.38 6.50L142.38 6.50ZM156.72 13.16Q155.65 13.16 154.87 12.74Q154.08 12.32 153.79 11.52L153.79 11.52L154.36 11.14Q154.57 11.84 155.22 12.19Q155.86 12.54 156.80 12.54L156.80 12.54Q157.75 12.54 158.29 12.18Q158.83 11.82 158.83 11.21L158.83 11.21Q158.83 10.70 158.37 10.39Q157.91 10.08 156.74 9.87L156.74 9.87Q155.27 9.60 154.67 9.16Q154.07 8.71 154.07 7.88L154.07 7.88Q154.07 7.34 154.41 6.87Q154.74 6.41 155.36 6.15Q155.97 5.88 156.76 5.88L156.76 5.88Q157.86 5.88 158.53 6.30Q159.19 6.72 159.45 7.59L159.45 7.59L158.84 7.94Q158.45 6.50 156.76 6.50L156.76 6.50Q156.20 6.50 155.74 6.68Q155.29 6.86 155.03 7.16Q154.77 7.46 154.77 7.81L154.77 7.81Q154.77 8.39 155.25 8.71Q155.72 9.03 156.93 9.24L156.93 9.24Q158.35 9.48 158.94 9.93Q159.53 10.37 159.53 11.19L159.53 11.19Q159.53 12.08 158.77 12.62Q158.00 13.16 156.72 13.16L156.72 13.16ZM170.79 13.16Q169.72 13.16 168.94 12.74Q168.15 12.32 167.86 11.52L167.86 11.52L168.43 11.14Q168.64 11.84 169.29 12.19Q169.93 12.54 170.87 12.54L170.87 12.54Q171.82 12.54 172.36 12.18Q172.90 11.82 172.90 11.21L172.90 11.21Q172.90 10.70 172.44 10.39Q171.98 10.08 170.81 9.87L170.81 9.87Q169.34 9.60 168.74 9.16Q168.14 8.71 168.14 7.88L168.14 7.88Q168.14 7.34 168.48 6.87Q168.81 6.41 169.43 6.15Q170.04 5.88 170.83 5.88L170.83 5.88Q171.93 5.88 172.60 6.30Q173.26 6.72 173.52 7.59L173.52 7.59L172.91 7.94Q172.52 6.50 170.83 6.50L170.83 6.50Q170.27 6.50 169.81 6.68Q169.36 6.86 169.10 7.16Q168.84 7.46 168.84 7.81L168.84 7.81Q168.84 8.39 169.32 8.71Q169.79 9.03 171.00 9.24L171.00 9.24Q172.42 9.48 173.01 9.93Q173.60 10.37 173.60 11.19L173.60 11.19Q173.60 12.08 172.84 12.62Q172.07 13.16 170.79 13.16L170.79 13.16ZM182.88 11.87Q183.25 11.87 183.45 12.15Q183.65 12.43 183.65 12.89L183.65 12.89Q183.65 13.48 183.34 14Q183.04 14.52 182.45 14.81L182.45 14.81L182.06 14.46Q182.55 14.28 182.86 13.85Q183.18 13.41 183.15 13.01L183.15 13.01L183.11 12.99Q183.01 13.13 182.78 13.13L182.78 13.13Q182.57 13.13 182.41 12.96Q182.24 12.80 182.24 12.52L182.24 12.52Q182.24 12.25 182.43 12.06Q182.62 11.87 182.88 11.87L182.88 11.87ZM209.71 3.78L206.43 9.42L206.43 13.02L205.73 13.02L205.73 9.42L202.45 3.78L203.28 3.78L206.08 8.69L208.88 3.78L209.71 3.78ZM220.07 5.88Q221.62 5.88 222.51 6.85Q223.40 7.83 223.40 9.52L223.40 9.52Q223.40 11.21 222.51 12.19Q221.62 13.16 220.07 13.16L220.07 13.16Q218.51 13.16 217.62 12.19Q216.73 11.21 216.73 9.52L216.73 9.52Q216.73 7.83 217.62 6.85Q218.51 5.88 220.07 5.88L220.07 5.88ZM220.07 6.48Q218.83 6.48 218.13 7.29Q217.43 8.11 217.43 9.52L217.43 9.52Q217.43 10.93 218.13 11.75Q218.83 12.56 220.07 12.56L220.07 12.56Q221.30 12.56 222.00 11.75Q222.70 10.93 222.70 9.52L222.70 9.52Q222.70 8.11 222.00 7.29Q221.30 6.48 220.07 6.48L220.07 6.48ZM237.55 6.02L238.25 6.02L238.25 13.02L237.62 13.02L237.59 11.63Q237.24 12.38 236.54 12.77Q235.84 13.16 234.89 13.16L234.89 13.16Q233.74 13.16 233.06 12.52Q232.37 11.89 232.37 10.64L232.37 10.64L232.37 6.02L233.07 6.02L233.07 10.47Q233.07 12.54 235.00 12.54L235.00 12.54Q235.77 12.54 236.35 12.21Q236.94 11.87 237.24 11.30Q237.55 10.72 237.55 10.04L237.55 10.04L237.55 6.02ZM250.68 5.88Q251.24 5.88 251.57 6.12L251.57 6.12L251.38 6.78Q251.06 6.52 250.49 6.52L250.49 6.52Q249.96 6.52 249.49 6.85Q249.02 7.18 248.73 7.78Q248.44 8.37 248.44 9.10L248.44 9.10L248.44 13.02L247.74 13.02L247.74 6.02L248.33 6.02L248.42 7.45Q248.71 6.71 249.29 6.29Q249.87 5.88 250.68 5.88L250.68 5.88ZM278.24 13.02L277.41 13.02L274.76 9.02L274.72 9.02L271.99 9.02L271.99 13.02L271.29 13.02L271.29 3.78L274.72 3.78Q276.11 3.78 276.93 4.48Q277.75 5.18 277.75 6.40L277.75 6.40Q277.75 7.41 277.16 8.07Q276.57 8.74 275.55 8.93L275.55 8.93L278.24 13.02ZM271.99 4.42L271.99 8.36L274.71 8.36Q275.83 8.36 276.42 7.85Q277.02 7.35 277.02 6.40L277.02 6.40Q277.02 5.45 276.42 4.93Q275.83 4.42 274.71 4.42L274.71 4.42L271.99 4.42ZM292.03 6.02L292.73 6.02L292.73 13.02L292.10 13.02L292.07 11.63Q291.72 12.38 291.02 12.77Q290.32 13.16 289.37 13.16L289.37 13.16Q288.22 13.16 287.53 12.52Q286.85 11.89 286.85 10.64L286.85 10.64L286.85 6.02L287.55 6.02L287.55 10.47Q287.55 12.54 289.48 12.54L289.48 12.54Q290.25 12.54 290.83 12.21Q291.41 11.87 291.72 11.30Q292.03 10.72 292.03 10.04L292.03 10.04L292.03 6.02ZM302.86 2.80L302.86 11.33Q302.86 11.97 303.06 12.24Q303.27 12.50 303.74 12.50L303.74 12.50Q304.02 12.50 304.22 12.46Q304.42 12.42 304.67 12.31L304.67 12.31L304.57 12.98Q304.18 13.16 303.65 13.16L303.65 13.16Q302.89 13.16 302.53 12.73Q302.16 12.31 302.16 11.40L302.16 11.40L302.16 2.80L302.86 2.80ZM318.82 9.35Q318.82 9.59 318.79 9.81L318.79 9.81L313.24 9.81Q313.31 11.10 314.00 11.82Q314.69 12.54 315.85 12.54L315.85 12.54Q316.68 12.54 317.28 12.21Q317.87 11.87 318.14 11.26L318.14 11.26L318.72 11.56Q318.33 12.33 317.60 12.75Q316.88 13.16 315.85 13.16L315.85 13.16Q314.30 13.16 313.43 12.19Q312.55 11.23 312.55 9.52L312.55 9.52Q312.55 7.81 313.40 6.85Q314.24 5.88 315.77 5.88L315.77 5.88Q317.20 5.88 318.01 6.83Q318.82 7.78 318.82 9.35L318.82 9.35ZM315.77 6.50Q314.64 6.50 313.98 7.20Q313.32 7.91 313.24 9.18L313.24 9.18L318.16 9.18Q318.09 7.92 317.47 7.21Q316.85 6.50 315.77 6.50L315.77 6.50ZM330.11 13.16Q329.04 13.16 328.26 12.74Q327.47 12.32 327.18 11.52L327.18 11.52L327.75 11.14Q327.96 11.84 328.61 12.19Q329.25 12.54 330.19 12.54L330.19 12.54Q331.14 12.54 331.68 12.18Q332.22 11.82 332.22 11.21L332.22 11.21Q332.22 10.70 331.76 10.39Q331.30 10.08 330.13 9.87L330.13 9.87Q328.66 9.60 328.06 9.16Q327.46 8.71 327.46 7.88L327.46 7.88Q327.46 7.34 327.80 6.87Q328.13 6.41 328.75 6.15Q329.36 5.88 330.15 5.88L330.15 5.88Q331.25 5.88 331.92 6.30Q332.58 6.72 332.84 7.59L332.84 7.59L332.23 7.94Q331.84 6.50 330.15 6.50L330.15 6.50Q329.59 6.50 329.13 6.68Q328.68 6.86 328.42 7.16Q328.16 7.46 328.16 7.81L328.16 7.81Q328.16 8.39 328.64 8.71Q329.11 9.03 330.32 9.24L330.32 9.24Q331.74 9.48 332.33 9.93Q332.92 10.37 332.92 11.19L332.92 11.19Q332.92 12.08 332.16 12.62Q331.39 13.16 330.11 13.16L330.11 13.16Z"></path></g></svg>