<svg data-v-fde0c5aa="" xmlns="http://www.w3.org/2000/svg" viewBox="0 0 300 300" class="font"><!----><defs data-v-fde0c5aa=""><!----></defs><rect data-v-fde0c5aa="" fill="#00242B" x="0" y="0" width="300px" height="300px" class="logo-background-square"></rect><defs data-v-fde0c5aa=""><!----></defs><g data-v-fde0c5aa="" id="deaefe9a-5589-49a1-986b-180a90e8807e" fill="#7DE38D" transform="matrix(3.9992729815060337,0,0,3.9992729815060337,38.84021074954816,110.54717009230097)"><path d="M3.75 13.19L3.75 13.72L0.29 13.72L0.29 13.19L1.51 12.91L1.51 4.63L0.29 4.49L0.29 4.06L2.46 3.53L2.90 3.53L2.90 12.91L3.75 13.19ZM8.02 13.20L8.02 13.72L4.75 13.72L4.75 13.19L5.36 12.95L3.08 10.11L5.11 7.60L3.99 7.34L3.99 6.85L7.59 6.85L7.59 7.34L6.26 7.62L4.47 9.77L7.01 12.92L8.02 13.20ZM10.14 5.66Q9.74 5.66 9.46 5.40Q9.18 5.14 9.18 4.76L9.18 4.76Q9.18 4.38 9.47 4.10Q9.76 3.82 10.14 3.82L10.14 3.82Q10.50 3.82 10.79 4.10Q11.07 4.38 11.07 4.76L11.07 4.76Q11.07 5.14 10.79 5.40Q10.51 5.66 10.14 5.66L10.14 5.66ZM12.04 13.72L8.25 13.72L8.25 13.19L9.45 12.91L9.45 7.81L8.25 7.67L8.25 7.24L10.40 6.71L10.84 6.71L10.84 12.91L12.04 13.19L12.04 13.72ZM16.86 13.55Q16.45 13.66 15.77 13.76Q15.09 13.85 14.73 13.85L14.73 13.85Q13.59 13.85 13.59 12.71L13.59 12.71L13.59 7.64L12.57 7.64L12.57 7.10L13.72 6.69L14.34 5.29L14.97 5.29L14.97 6.85L17.05 6.85L17.05 7.76L14.97 7.64L14.97 12.80L16.86 13.08L16.86 13.55ZM21.25 13.72L17.44 13.72L17.44 13.19L18.66 12.91L18.66 4.63L17.44 4.49L17.44 4.06L19.59 3.53L20.05 3.53L20.05 12.91L21.25 13.19L21.25 13.72ZM25.19 13.87Q23.53 13.87 22.75 12.94Q21.97 12.01 21.97 10.32L21.97 10.32Q21.97 8.51 22.77 7.61Q23.58 6.71 25.03 6.71L25.03 6.71Q26.42 6.71 27.07 7.35Q27.72 7.99 27.72 9.37L27.72 9.37Q27.72 9.73 27.68 10.14L27.68 10.14L23.48 10.14L23.48 10.54Q23.48 11.77 24.00 12.40Q24.53 13.03 25.49 13.03L25.49 13.03Q26.39 13.03 27.54 12.71L27.54 12.71L27.64 13.20Q27.08 13.55 26.50 13.71Q25.93 13.87 25.19 13.87L25.19 13.87ZM23.51 9.56L26.26 9.41L26.26 9.10Q26.26 8.29 26.00 7.89Q25.73 7.49 25.12 7.49L25.12 7.49Q24.28 7.49 23.92 7.97Q23.56 8.46 23.51 9.56L23.51 9.56ZM33.39 13.06Q32.86 13.45 32.30 13.66Q31.74 13.86 31.07 13.86L31.07 13.86Q30.28 13.86 29.73 13.38Q29.18 12.89 28.90 12.09Q28.63 11.28 28.63 10.32L28.63 10.32Q28.63 8.62 29.46 7.67Q30.28 6.71 31.75 6.71L31.75 6.71Q32.12 6.71 32.47 6.78Q32.83 6.85 33.08 6.93Q33.33 7.01 33.35 7.04L33.35 7.04L33.35 4.63L32.14 4.49L32.14 4.06L34.29 3.53L34.73 3.53L34.73 12.80L35.94 13.09L35.94 13.55Q35.17 13.78 34.43 13.78L34.43 13.78Q34.08 13.78 33.77 13.58Q33.46 13.38 33.39 13.06L33.39 13.06ZM31.72 12.95Q32.17 12.95 32.61 12.78Q33.05 12.61 33.35 12.42L33.35 12.42L33.35 7.87Q32.72 7.46 31.92 7.46L31.92 7.46Q31.05 7.46 30.60 8.21Q30.14 8.96 30.14 10.28L30.14 10.28Q30.14 11.51 30.53 12.23Q30.93 12.95 31.72 12.95L31.72 12.95ZM39.09 16.20Q37.56 16.20 37.03 15.83Q36.50 15.46 36.50 14.84L36.50 14.84Q36.50 14.04 37.37 13.37L37.37 13.37Q37.13 13.27 37.01 13.05Q36.89 12.84 36.89 12.57L36.89 12.57Q36.89 12.25 37.13 11.90Q37.37 11.55 37.79 11.12L37.79 11.12Q36.88 10.51 36.88 9.07L36.88 9.07Q36.88 8.43 37.17 7.89Q37.46 7.35 38.06 7.02Q38.65 6.69 39.49 6.69L39.49 6.69Q40.36 6.69 41.08 7.07L41.08 7.07L43.04 6.54L43.04 7.59L41.54 7.59Q41.82 7.85 41.96 8.26Q42.11 8.67 42.11 9.07L42.11 9.07Q42.11 10.09 41.45 10.77Q40.80 11.44 39.38 11.44L39.38 11.44Q39.06 11.44 38.76 11.40Q38.46 11.35 38.40 11.33L38.40 11.33Q38.09 11.79 38.09 12.01L38.09 12.01Q38.09 12.18 38.21 12.32Q38.32 12.46 38.53 12.46L38.53 12.46L40.67 12.46Q41.73 12.46 42.29 12.77Q42.84 13.08 42.84 13.92L42.84 13.92Q42.84 14.49 42.43 15.02Q42.03 15.54 41.18 15.87Q40.33 16.20 39.09 16.20L39.09 16.20ZM39.52 10.71Q40.19 10.71 40.47 10.29Q40.74 9.87 40.74 9.07L40.74 9.07Q40.74 7.42 39.48 7.42L39.48 7.42Q38.82 7.42 38.55 7.85Q38.28 8.29 38.28 9.07L38.28 9.07Q38.28 9.87 38.56 10.29Q38.85 10.71 39.52 10.71L39.52 10.71ZM39.17 15.43Q40.43 15.43 41.02 15.08Q41.61 14.73 41.61 14.11L41.61 14.11Q41.61 13.72 41.39 13.59Q41.17 13.47 40.67 13.47L40.67 13.47L38.18 13.47Q37.74 14 37.74 14.53L37.74 14.53Q37.74 15.01 38.05 15.22Q38.36 15.43 39.17 15.43L39.17 15.43ZM46.90 13.87Q45.25 13.87 44.46 12.94Q43.68 12.01 43.68 10.32L43.68 10.32Q43.68 8.51 44.48 7.61Q45.29 6.71 46.75 6.71L46.75 6.71Q48.13 6.71 48.78 7.35Q49.43 7.99 49.43 9.37L49.43 9.37Q49.43 9.73 49.39 10.14L49.39 10.14L45.19 10.14L45.19 10.54Q45.19 11.77 45.72 12.40Q46.24 13.03 47.21 13.03L47.21 13.03Q48.10 13.03 49.25 12.71L49.25 12.71L49.35 13.20Q48.79 13.55 48.22 13.71Q47.64 13.87 46.90 13.87L46.90 13.87ZM45.22 9.56L47.98 9.41L47.98 9.10Q47.98 8.29 47.71 7.89Q47.45 7.49 46.83 7.49L46.83 7.49Q45.99 7.49 45.63 7.97Q45.28 8.46 45.22 9.56L45.22 9.56ZM54.14 7.70Q53.42 7.70 52.81 7.95L52.81 7.95L52.81 12.91L54.40 13.22L54.40 13.72L50.22 13.72L50.22 13.23L51.42 12.89L51.42 7.83L50.22 7.67L50.22 7.24L52.25 6.71L52.78 6.71L52.78 7.35Q53.26 7.04 53.84 6.86Q54.42 6.68 54.92 6.68L54.92 6.68Q55.19 6.68 55.30 6.69L55.30 6.69L55.06 8.86L54.43 8.86L54.14 7.70Z"></path></g><!----><!----></svg>